<svg xmlns="http://www.w3.org/2000/svg" xmlns:xlink="http://www.w3.org/1999/xlink" width="171.325" height="171.324" viewBox="0 0 171.325 171.324">
  <defs>
    <filter id="Ellipse_1" x="0" y="0" width="171.325" height="171.324" filterUnits="userSpaceOnUse">
      <feOffset dy="3" input="SourceAlpha"/>
      <feGaussianBlur stdDeviation="7" result="blur"/>
      <feFlood flood-opacity="0.161"/>
      <feComposite operator="in" in2="blur"/>
      <feComposite in="SourceGraphic"/>
    </filter>
    <filter id="Path_3" x="33.934" y="18.433" width="125.391" height="126.996" filterUnits="userSpaceOnUse">
      <feOffset dy="3" input="SourceAlpha"/>
      <feGaussianBlur stdDeviation="3" result="blur-2"/>
      <feFlood flood-opacity="0.161"/>
      <feComposite operator="in" in2="blur-2"/>
      <feComposite in="SourceGraphic"/>
    </filter>
    <filter id="Path_4" x="8.391" y="26.506" width="125.391" height="126.996" filterUnits="userSpaceOnUse">
      <feOffset dy="3" input="SourceAlpha"/>
      <feGaussianBlur stdDeviation="3" result="blur-3"/>
      <feFlood flood-opacity="0.161"/>
      <feComposite operator="in" in2="blur-3"/>
      <feComposite in="SourceGraphic"/>
    </filter>
  </defs>
  <g id="Group_2" data-name="Group 2" transform="translate(4.573 -44.918)">
    <g transform="matrix(1, 0, 0, 1, -4.57, 44.92)" filter="url(#Ellipse_1)">
      <ellipse id="Ellipse_1-2" data-name="Ellipse 1" cx="64.662" cy="64.662" rx="64.662" ry="64.662" transform="translate(21 18)" fill="#fff"/>
    </g>
    <g transform="matrix(1, 0, 0, 1, -4.57, 44.92)" filter="url(#Path_3)">
      <path id="Path_3-2" data-name="Path 3" d="M48.053,45.592c-13.57-95.9,12.238-14.126,12.238,7.7S46.97,92.811,30.538,92.811-4.019,71.9.786,53.292c3.181-12.317,47.258-7.674,47.267-7.7C48.061,45.584,48.062,45.591,48.053,45.592Z" transform="translate(42.93 65.55) rotate(-43)" fill="rgba(41,239,239,0.69)"/>
    </g>
    <g transform="matrix(1, 0, 0, 1, -4.57, 44.92)" filter="url(#Path_4)">
      <path id="Path_4-2" data-name="Path 4" d="M48.053,45.592c-13.57-95.9,12.238-14.126,12.238,7.7S46.97,92.811,30.538,92.811-4.019,71.9.786,53.292c3.181-12.317,47.258-7.674,47.267-7.7C48.061,45.584,48.062,45.591,48.053,45.592Z" transform="translate(124.78 100.38) rotate(137)" fill="rgba(41,239,239,0.69)"/>
    </g>
  </g>
</svg>
